<?xml version="1.0" encoding="UTF-8"?>
<!DOCTYPE svg PUBLIC "-//W3C//DTD SVG 1.1//EN" "http://www.w3.org/Graphics/SVG/1.1/DTD/svg11.dtd">
<!-- Creator: CorelDRAW -->
<svg xmlns="http://www.w3.org/2000/svg" xml:space="preserve" width="4.233mm" height="4.233mm" version="1.1" style="shape-rendering:geometricPrecision; text-rendering:geometricPrecision; image-rendering:optimizeQuality; fill-rule:evenodd; clip-rule:evenodd"
viewBox="0 0 423.3 423.3"
 xmlns:xlink="http://www.w3.org/1999/xlink"
 xmlns:xodm="http://www.corel.com/coreldraw/odm/2003"
 aria-hidden="true"
 role="img">
 <defs>
  <style type="text/css">
   <![CDATA[
    .fil0 {fill:black;fill-rule:nonzero}
   ]]>
  </style>
 </defs>
 <g id="Camada_x0020_1">
  <metadata id="CorelCorpID_0Corel-Layer"/>
  <path class="fil0" d="M148 1.05c-9.09,1.6 -14.51,3.55 -20.69,7.49 -13.12,8.42 -18.07,18.81 -14.89,31.08 1.69,6.47 1.4,6.1 21.54,26.96 16.28,16.86 29.87,33.43 30.98,37.74 0.37,1.78 -0.18,2.81 -2.9,5.06 -2.81,2.24 -3.36,3.37 -3.36,6.37 0,2.81 0.55,4.02 2.89,5.99 1.6,1.31 3.29,2.43 3.74,2.43 2.44,0 0.1,4.21 -7.02,12.37 -4.29,5.05 -8.42,9.73 -9.07,10.39 -0.75,0.74 -3.66,3.84 -6.46,6.83 -2.91,3.09 -8.9,9.37 -13.4,14.13 -4.01,4.21 -6.05,6.44 -7.09,8.14 -23.27,24.42 -28.11,30.08 -38.21,43.74 -13.85,18.72 -22.66,35.58 -28.37,54.49 -2.44,7.86 -2.99,11.7 -3.37,21.9 -0.84,20.14 2.06,33.44 11.05,50.85 12.26,23.88 32.5,42.79 61.24,57.4 7.58,3.84 21.53,9.36 27.61,10.86 2.35,0.66 5.06,1.5 6.1,1.97 1.03,0.46 7.76,2.06 14.97,3.45 11.13,2.22 14.09,2.57 31.9,2.62l0.07 0 0.8 0 2.02 0.01 0.44 0 0.57 0 0.29 0 0.76 0 0.12 0 0.89 0 0.07 0 0.83 0 0.08 0 0.89 0 0.11 0 0.77 0 0.28 0 0.57 0 0.45 0 2.02 -0.01 0.78 0 0.08 0c17.81,-0.04 20.76,-0.4 31.89,-2.62 7.21,-1.39 13.94,-2.99 14.97,-3.45 1.03,-0.47 3.75,-1.31 6.1,-1.97 6.08,-1.5 20.03,-7.02 27.61,-10.86 28.74,-14.61 48.98,-33.52 61.24,-57.4 8.99,-17.41 11.89,-30.71 11.05,-50.85 -0.38,-10.2 -0.93,-14.04 -3.37,-21.9 -5.71,-18.91 -14.52,-35.77 -28.37,-54.49 -10.86,-14.7 -15.63,-20.14 -43.82,-49.62 -19.76,-20.79 -17.71,-18.64 -25.76,-27.72 -7.29,-8.23 -12.63,-14.88 -12.63,-15.82 0,-0.38 1.96,-2.44 4.3,-4.78 3.75,-3.56 4.31,-4.49 3.75,-6.74 -0.56,-2.43 -2.44,-4.5 -7.21,-7.78l-1.96 -1.48 2.52 -5.07c3.1,-6.08 9.83,-16.2 15.54,-23.4 8.05,-10.02 17.7,-23.98 20.51,-29.6 5.25,-10.39 4.68,-21.62 -1.31,-27.43 -7.21,-7.02 -16.67,-8.71 -32.87,-5.8 -10.2,1.87 -14.6,2.9 -23.69,5.8 -1.68,0.57 -5.32,1.03 -8.05,1.03 -4.95,0.1 -5.89,-0.28 -23.5,-9.35 -19.66,-10.12 -39.79,-14.05 -57.02,-10.96zm37.79 29.89c2.34,0.64 9.8,3.89 16.6,7.31l12.34 6.1 6.46 0.28c5.39,0.22 7.58,0 12.96,-1.55 9.59,-2.7 15.69,-3.91 20.87,-4.05 7.02,-0.14 7.02,-0.14 7.02,1.98 0,3.19 -3.27,8.73 -11.85,20.08 -4.54,6.02 -9.79,13.18 -11.63,15.95 -3.54,5.32 -7.73,13.97 -7.73,16.03 0,0.71 -0.5,1.78 -1.14,2.36 -0.92,0.98 -3.61,1.12 -20.35,0.98l-19.23 -0.21 -3.54 -6.96c-5.39,-10.29 -10.63,-16.95 -25.32,-32.05 -7.59,-7.74 -13.49,-14.33 -13.77,-15.4 -1.13,-4.32 3.91,-9.08 11.85,-11.28 4.25,-1.13 6.74,-1.27 13.69,-1.06 4.69,0.22 10.43,0.86 12.77,1.49zm-16.68 129.43c7.52,-8.71 12.95,-15.97 15.39,-20.7l3.25 -6.44 24.36 0 24.44 0 0.54 2.11c0.87,3.61 6.6,13.06 11.55,19.05 6.25,7.6 16.4,18.7 32.01,34.85 28.59,29.65 45.17,51.09 54.25,70.03 8.21,17.22 9.72,23.13 9.72,39.8 0,10.41 -0.36,14.11 -1.96,20.2 -3.96,15.09 -14.99,32.56 -27.52,43.41 -10.58,9.34 -27.7,19.66 -37.39,22.84 -1.95,0.62 -3.98,1.41 -4.5,1.86 -0.89,0.71 -12.09,3.96 -22.32,6.52 -1.4,0.4 -4.45,0.91 -8.16,1.45l-0.17 0.04 -0.15 0.01 -0.32 0.04 -0.02 0.01 -0.31 0.02 -0.21 0.03 -0.11 0.02 -0.33 0.05 -0.1 0.01 -0.25 0.04 -0.32 0.04 -0.28 0.04 -0.05 0.01 -0.33 0.05c-9.69,1.24 -18.85,1.88 -27.6,1.97l-0.41 0c-8.97,-0.07 -18.39,-0.72 -28.36,-1.97l-0.34 -0.05 -0.05 -0.01 -0.29 -0.04 -0.31 -0.04 -0.25 -0.04 -0.1 -0.01 -0.33 -0.05 -0.11 -0.02 -0.21 -0.03 -0.31 -0.02 -0.01 -0.01c-3.99,-0.57 -7.32,-1.13 -8.81,-1.54 -10.23,-2.56 -21.43,-5.81 -22.32,-6.52 -0.52,-0.45 -2.54,-1.24 -4.49,-1.86 -9.7,-3.18 -26.82,-13.5 -37.4,-22.84 -12.53,-10.85 -23.56,-28.32 -27.52,-43.41 -1.6,-6.09 -1.95,-9.79 -1.95,-20.2 0,-16.67 1.49,-22.57 9.71,-39.8 9.08,-18.94 25.66,-40.39 54.26,-70.03 11.9,-12.33 20.66,-21.73 26.92,-28.87l-0.43 0zm36.66 19.11c-2.25,1.95 -2.62,2.98 -3.09,9.91l-0.46 7.68 -6.75 1.79c-16.57,4.21 -29.77,17.12 -33.14,32.58 -2.25,10.67 1.5,23.68 9.45,32.29 4.31,4.69 15.92,10.86 24.63,13.12 3.08,0.74 5.62,1.5 5.81,1.68 0.74,0.75 0.65,47.75 -0.1,48.5 -1.4,1.41 -11.89,-4.5 -16.01,-9.18 -10.29,-11.5 -9.37,-10.76 -13.49,-10.2 -4.68,0.65 -7.21,2.81 -7.95,6.83 -0.94,4.97 4.4,12.92 13.67,20.32 5.24,4.12 15.54,9.08 18.91,9.08 4.87,0 5.43,0.76 5.43,6.65 0,7.02 1.88,11.52 5.52,13.39 3.94,2.07 5.15,1.87 8.9,-1.4 3.19,-2.71 3.27,-3.1 3.56,-10.02l0.28 -7.21 5.81 -1.5c11.79,-3.18 23.41,-11.23 29.12,-20.22 1.59,-2.54 3.83,-7.68 4.96,-11.71 2.06,-6.93 2.06,-7.4 0.66,-14.7 -1.6,-7.85 -4.13,-13.95 -7.59,-17.88 -5.43,-6.18 -16.1,-11.99 -26.03,-14.23 -2.82,-0.56 -5.61,-1.5 -6.18,-1.97 -1.78,-1.31 -1.78,-47.37 0,-48.04 1.31,-0.46 8.05,2.34 11.98,4.98 1.4,0.93 4.68,4.3 7.4,7.48 4.41,5.34 5.15,5.89 8.43,5.89 2.81,0 4.31,-0.64 6.45,-2.89 3.94,-3.84 3.75,-6.84 -0.74,-13.2 -6.28,-8.71 -17.33,-16.29 -27.25,-18.63 -2.81,-0.67 -5.7,-1.78 -6.27,-2.63 -0.75,-0.75 -1.22,-4.02 -1.22,-7.59 0,-5.23 -0.37,-6.45 -2.34,-8.7 -3.18,-3.37 -8.61,-3.47 -12.36,-0.27zm-6.75 58.01c0.06,8.35 -0.13,15.28 -0.33,15.47 -0.82,0.83 -9.35,-3.18 -11.78,-5.53 -5.09,-4.97 -5.22,-13.05 -0.25,-18.52 2.55,-2.81 11.02,-7.84 11.85,-7.01 0.25,0.25 0.51,7.31 0.51,15.59zm25.22 66.47c-0.06,-8.35 0.13,-15.28 0.33,-15.47 0.82,-0.83 9.35,3.18 11.78,5.53 5.09,4.97 5.22,13.05 0.25,18.52 -2.55,2.81 -11.02,7.84 -11.85,7.01 -0.25,-0.25 -0.51,-7.31 -0.51,-15.59z"/>
 </g>
</svg>
