<?xml version="1.0" encoding="UTF-8"?>
<!DOCTYPE svg PUBLIC "-//W3C//DTD SVG 1.1//EN" "http://www.w3.org/Graphics/SVG/1.1/DTD/svg11.dtd">
<!-- Creator: CorelDRAW -->
<svg xmlns="http://www.w3.org/2000/svg" xml:space="preserve" width="4.233mm" height="4.233mm" version="1.1" style="shape-rendering:geometricPrecision; text-rendering:geometricPrecision; image-rendering:optimizeQuality; fill-rule:evenodd; clip-rule:evenodd"
viewBox="0 0 423.3 423.3"
 xmlns:xlink="http://www.w3.org/1999/xlink"
 xmlns:xodm="http://www.corel.com/coreldraw/odm/2003"
 aria-hidden="true"
 role="img">
 <defs>
  <style type="text/css">
   <![CDATA[
    .fil0 {fill:black}
    .fil1 {fill:#FEFEFE}
   ]]>
  </style>
 </defs>
 <g id="Camada_x0020_1">
  <metadata id="CorelCorpID_0Corel-Layer"/>
  <path class="fil0" d="M34.98 0.63c-17.56,2.98 -29.66,13.76 -33.71,30.18 -1.98,7.96 -1.08,51.27 -1.08,62.71l0 256.2c0,11.5 0.16,17.94 5.06,26.78 3.58,6.46 9.24,12.27 16.17,15.84 9.39,4.85 15.83,4.61 27.64,4.61l128.09 0c6.83,0 19.41,1.22 21.22,-11.1 0.79,-5.45 -1.48,-9.21 -4.17,-11.85 -3.48,-3.41 -6.82,-3.52 -12.38,-3.51l-128.11 0.01c-10.95,0 -20.77,1.93 -25.4,-6.72 -3.04,-5.69 -1.66,-23.03 -1.66,-30.59l0 -287.71c-0.02,-8.89 0.86,-18.48 13.62,-18.79 10.54,-0.27 21.45,0 32.03,0l192.15 0c6.13,0 27.16,-0.75 31.41,0.82 9.79,3.64 8.47,12.5 8.47,23.65 0,21.36 0,42.7 0,64.06 0,7.64 -1.36,24.6 1.65,30.27 3.79,7.11 14.16,9.6 21,2.8 5.82,-5.78 3.8,-19.08 3.8,-28.42 0,-10.68 0,-21.36 0,-32.03 0,-14.62 1.78,-50.43 -2.52,-61.74 -5.32,-14 -18.69,-25.82 -37.96,-25.87l-224.19 0c-8.33,0 -23.84,-0.83 -31.13,0.4zm72.72 158.22c0.13,-5.03 5.07,-14.76 7.36,-18.43 18.85,-30.28 61.2,-37.1 88.92,-13.81 7.99,6.7 18.87,22.11 19.36,32.32l-115.64 -0.08zm44.5 -71.69c-33.5,6.99 -57.69,26.53 -68.07,57.4 -1.72,5.06 -2.23,9.43 -3.77,14.38 -6.83,-0.11 -11.42,-0.64 -15.99,3.09 -3.12,2.53 -6,8.27 -4.02,14.2 3.82,11.51 16.25,9.14 29,9.14l152.89 0c12.4,0 25.12,2.26 28.51,-9.6 1.7,-5.95 -1.22,-11.31 -4.35,-13.96 -4.79,-4.03 -9.42,-1.83 -16.01,-3.08 -4.5,-22.01 -12.16,-35.34 -24.13,-47.16 -10.73,-10.59 -26.46,-21.23 -47.47,-24.34 -0.34,-5.68 0.79,-9.89 -2.02,-14.5 -5.33,-8.72 -17.4,-8.1 -22.34,-0.4 -3.02,4.66 -1.95,8.79 -2.23,14.83zm-82.42 164.78c-10.85,2.66 -13.63,16.26 -4.97,23.16 4.56,3.65 9.68,2.82 16.28,2.82 13.87,0 90.13,0.74 94.58,-0.5 10.23,-2.85 13.12,-16.74 4.85,-22.99 -4.54,-3.41 -9.46,-2.95 -16.27,-2.95 -14.27,0 -89.47,-0.76 -94.47,0.46zm1.39 52.6c-11.17,1.68 -15.36,15.35 -7.39,22.7 4.15,3.83 8.8,3.59 15.75,3.59 10.34,0 90.53,0.5 95,-0.25 10.48,-1.75 14.33,-15.3 6.65,-22.58 -4.11,-3.9 -8.54,-3.63 -15.38,-3.63 -9.83,0 -90.83,-0.42 -94.63,0.17zm351.92 19.35l0.14 -3.53 -25.5 -0.12c-0.77,3.28 0.12,-0.01 -0.97,1.59 -1.27,34.73 -25.21,59.98 -50.97,69.95 -30.86,11.96 -68.75,2.13 -88.79,-22.72 -8.68,-10.75 -16.14,-23.97 -18.24,-42.21 -3.94,-33.98 13.02,-63.61 41.33,-79.28 14.77,-8.17 31.73,-10.13 51.39,-9.26 -0.88,1.91 -6.99,7.49 -8.91,9.4 -3.09,3.05 -6.34,7.13 -4.55,13.87 2,7.54 12.73,15.19 23.41,4.47l28.67 -28.66c2.94,-2.95 6.85,-5.61 6.93,-12.16 0.09,-6 -3.51,-9.31 -6.64,-12.44l-28.63 -28.7c-9.92,-9.94 -20.99,-4.43 -23.58,3.91 -3.75,12.06 9.98,17.85 13.31,23.71 -15.16,1.13 -17.91,-1.4 -37.09,2.67 -10.78,2.29 -20.6,6.42 -29.04,11.24 -47.08,26.84 -67.13,84.43 -43.57,136.81 22.18,49.31 82.87,74.06 133.58,53.94 19.89,-7.88 35.47,-20.35 45.89,-34.17 9.81,-13.02 21.91,-36.38 21.83,-58.31zm-26.3 -3.53l-0.03 1.47c1.09,-1.6 0.2,1.69 0.97,-1.59l25.5 0.12c0.52,-9.2 -4.44,-15.95 -13.11,-15.95 -4.48,0 -7.92,2.15 -9.89,4.43 -2.85,3.28 -3.15,6.28 -3.44,11.52z"/>
  <path class="fil1" d="M-516.11 169.29l92.54 0.06c-0.39,-8.17 -9.1,-20.5 -15.49,-25.86 -22.19,-18.64 -56.08,-13.18 -71.16,11.05 -1.84,2.94 -5.79,10.72 -5.89,14.75z"/>
 </g>
</svg>
