<?xml version="1.0" encoding="UTF-8"?>
<!DOCTYPE svg PUBLIC "-//W3C//DTD SVG 1.1//EN" "http://www.w3.org/Graphics/SVG/1.1/DTD/svg11.dtd">
<!-- Creator: CorelDRAW -->
<svg xmlns="http://www.w3.org/2000/svg" xml:space="preserve" width="0.4232mm" height="0.226mm" version="1.1" style="shape-rendering:geometricPrecision; text-rendering:geometricPrecision; image-rendering:optimizeQuality; fill-rule:evenodd; clip-rule:evenodd"
viewBox="0 0 42.32 22.6"
 xmlns:xlink="http://www.w3.org/1999/xlink"
 xmlns:xodm="http://www.corel.com/coreldraw/odm/2003">
 <defs>
  <style type="text/css">
   <![CDATA[
    .fil0 {fill:none}
    .fil1 {fill:#BEBEC4}
   ]]>
  </style>
 </defs>
 <g id="Camada_x0020_1">
  <metadata id="CorelCorpID_0Corel-Layer"/>
  <g id="_2239421754464">
   <rect class="fil0" x="-4.23" y="5.14" width="42.33" height="23.57"/>
   <g>
    <path class="fil1" d="M15.59 14.68c0.61,-0.74 3.54,-0.65 3.96,1.78 0.08,0.49 0.03,1.43 -0.38,1.8 -0.41,-1.73 -1.79,-3.15 -3.58,-3.58zm0.7 -1.53c-1.91,0.33 -3.55,2.08 -3.14,4.45 0.32,1.88 2.14,3.51 4.45,3.11 1.84,-0.32 3.52,-2.12 3.1,-4.46 -0.33,-1.87 -2.12,-3.5 -4.41,-3.1z"/>
    <path class="fil1" d="M10.87 11.7c-0.5,0.2 -0.5,0.66 -0.47,1.28 0.05,1.16 0.32,4.27 -0.01,4.94 -0.33,0.68 -1.14,0.9 -0.72,2.49 0.76,2.84 2.71,1.99 3.04,-0.47 0.19,-1.39 -0.78,-1.42 -0.97,-2.49 -0.16,-0.93 0.23,-4.03 0.16,-5.07 -0.03,-0.49 -0.47,-0.89 -1.03,-0.68z"/>
    <path class="fil1" d="M22.27 14.2c-1.05,0.17 0.14,-2.47 -0.75,-2.54 -0.57,-0.05 -0.4,0.8 -0.4,1.26 0,0.44 -0.04,1.19 0.02,1.59 0.15,1.03 1.02,0.98 1,2.36 -0.02,1.05 -0.1,2.11 -0.14,3.17 -0.01,0.35 -0.1,1.3 -0.03,1.59 0.09,0.41 0.56,0.73 1.07,0.51 0.65,-0.28 0.39,-1.8 0.34,-2.82 -0.02,-0.68 -0.19,-2.55 -0.04,-3.09 0.31,-1.08 0.97,-0.69 0.97,-2.35l0 -1.68c0,-0.31 -0.08,-0.59 -0.44,-0.54 -0.63,0.1 -0.06,1.63 -0.36,2.54l-0.37 -0.03c-0.32,-0.88 0.34,-2.58 -0.48,-2.51 -0.68,0.05 -0.07,1.77 -0.39,2.54z"/>
    <path class="fil1" d="M12.95 21.97c0.21,0.08 0.3,0.18 0.52,0.33 2.12,1.39 4.97,1.32 7.05,-0.1 0.14,-0.09 0.39,-0.26 0.48,-0.36 0.11,-0.13 0.13,-2.02 0.12,-2.28 -0.29,0.23 -1.1,1.84 -3.4,2.23 -2.51,0.42 -3.76,-1.06 -4.22,-1.28 -0.17,0.75 -0.48,1.15 -0.55,1.46z"/>
    <path class="fil1" d="M12.72 14.29c0.16,-0.11 0.19,-0.21 0.31,-0.36 1.17,-1.62 3.49,-2.32 5.41,-1.69 0.54,0.18 0.91,0.37 1.35,0.69 0.08,0.06 0.13,0.09 0.21,0.15 0.13,0.1 0.08,0.08 0.23,0.16 -0.01,-0.67 0.01,-1.12 0.08,-1.73 -1.42,-0.83 -3.08,-1.27 -5.01,-0.76 -0.83,0.22 -1.53,0.59 -2.11,1 -0.55,0.4 -0.38,0.26 -0.41,1.05 -0.02,0.49 -0.06,0.99 -0.06,1.49z"/>
   </g>
  </g>
 </g>
</svg>
