<?xml version="1.0" encoding="UTF-8"?>
<!DOCTYPE svg PUBLIC "-//W3C//DTD SVG 1.1//EN" "http://www.w3.org/Graphics/SVG/1.1/DTD/svg11.dtd">
<!-- Creator: CorelDRAW -->
<svg xmlns="http://www.w3.org/2000/svg" xml:space="preserve" width="1.27mm" height="1.27mm" version="1.1" style="shape-rendering:geometricPrecision; text-rendering:geometricPrecision; image-rendering:optimizeQuality; fill-rule:evenodd; clip-rule:evenodd"
viewBox="0 0 127 127"
 xmlns:xlink="http://www.w3.org/1999/xlink"
 xmlns:xodm="http://www.corel.com/coreldraw/odm/2003">
 <defs>
  <style type="text/css">
   <![CDATA[
    .fil1 {fill:black}
    .fil5 {fill:black}
    .fil3 {fill:#EC3136}
    .fil2 {fill:#EEBE70}
    .fil4 {fill:#F69C39}
    .fil0 {fill:#FDCA29}
   ]]>
  </style>
 </defs>
 <g id="Camada_x0020_1">
  <metadata id="CorelCorpID_0Corel-Layer"/>
  <g id="_2238371675808">
   <g>
    <path class="fil0" d="M58.99 75.19c-2.36,7.74 -14.91,4.77 -12.64,-3.9 0.75,-2.88 4.57,-5.33 8.37,-4.21 2.84,0.83 5.45,4.25 4.27,8.11zm-27.15 -14.92c-1.2,-8.6 12.22,-10.59 12.95,-1.54 0.73,9.07 -11.89,9.11 -12.95,1.54zm27.23 -20.69c12.17,-4.08 16.69,12.79 6.34,16.31 -11.9,4.04 -16.8,-12.8 -6.34,-16.31zm22.14 0.03c8.93,-3.7 12.4,8.94 5.36,11.68 -4.39,1.7 -7.71,-0.42 -8.84,-3.59 -1.58,-4.38 0.47,-6.84 3.48,-8.09zm-26.83 -19.03c-1.16,-0.08 -0.81,-0.14 -2.06,0.04 -1.19,0.17 -1.07,0.29 -1.37,0.43 4.25,1.96 6.98,7.64 3.99,13.04 -1.75,3.18 -6.39,7.34 -9.37,9.64 -6.39,4.94 -8.69,4.31 -17.35,-4.12 -1.56,-1.52 -2.98,-3.8 -4.71,-4.99 -2.13,1.38 -4.24,3.17 -6.28,4.97 -1.98,1.74 -3.52,3.86 -5.1,6.27 2.32,5.78 21.34,35.45 21.49,37.69l-0.16 1.14c-0.02,0.08 -0.07,0.26 -0.13,0.37 -3.07,3.14 -8.92,-13.27 -12.29,-16.02 -0.18,3.76 -0.04,7.54 -0.07,11.3 -0.02,3.74 -0.91,7.64 1.95,9.45 1.44,0.63 1.87,-0.4 3.56,-0.01 5.14,1.22 -3.05,18.21 7.31,13.23 -1.78,-5.27 -3.42,-9.03 1.2,-13.25 4.61,-4.21 8.99,-2.75 13.73,-0.17 3.76,-1.6 5.92,-4.05 11.43,-1.63 10.18,4.49 5.77,17.85 -8.52,24.98 0.65,2.66 5.23,9.98 6.57,12.24 2.76,-0.84 3.69,-4.59 6.09,-8.7l13.34 -22.68c1.03,-1.84 1.49,-2.75 3.82,-1.94 0.84,4.19 -5.24,6.1 -2.43,15.88 2.38,1.08 2.43,0.95 4.92,0.13 1.77,-6.01 0.1,-8.21 0.72,-11.55l0.41 -1.21c0.6,-1.6 2.29,-0.03 6.02,-1.17 1.01,-3.41 0.95,-5.25 0.72,-9.44 -4.85,0.29 -3.45,6.88 -14.31,-2.06 -17.34,-14.29 -4.68,-23.87 2.94,-22.47 4.27,0.78 3.44,3.13 8.01,0.91 3.22,-1.58 4.93,-1.28 8.43,-0.31 1.16,-1.19 8.33,-13.33 8.96,-15.22 -2.29,-4.08 -14.44,-15.18 -20.07,-16.93 -2.89,1.85 -5.45,3.63 -10.04,1.77 -3.85,-1.56 -4.38,-3.95 -5.72,-7.51 -3.99,-0.99 -13.22,-0.3 -15.63,-2.1z"/>
    <path class="fil1" d="M39.54 91.08c4.96,-2.15 6.03,2.54 9.17,2.47 2.86,-0.06 3.83,-4.2 9.01,-2.67 2.75,0.81 5.17,4.23 4.05,7.63 -0.79,2.42 -4.11,5.29 -5.67,6.71 -1.48,1.35 -5.03,5.31 -7.4,5.31 -1.39,0 -6.42,-4.11 -7.29,-4.86 -3.54,-3.08 -10.6,-10.8 -1.87,-14.59zm36.99 -27.31c5.11,-1.96 5.8,2.78 9.19,2.56 2.73,-0.18 3.87,-4.28 8.93,-2.61 2.64,0.87 4.97,3.91 4,7.32 -0.81,2.86 -3.63,5.3 -5.49,6.94 -7.23,6.4 -6.95,7.45 -14.75,0.48 -1.42,-1.27 -5,-4.64 -5.74,-6.65 -1.53,-4.13 1.09,-6.98 3.86,-8.04zm-24.2 -34.37c0,3.36 -2.8,5.88 -4.69,7.67 -6.3,5.95 -7.72,7.27 -11.02,4.96 -4.8,-3.36 -16.07,-12.36 -8.01,-17.82 4.22,-2.86 6.48,0.28 8.9,1.53 3.69,1.91 4.53,-2.52 8.63,-2.5 3.85,0.03 6.19,2.51 6.19,6.16zm40.65 -12.35c0.43,3.04 3.47,3.94 6,5.82 2.58,1.92 4.26,3.34 6.58,5.29 6.27,5.24 8.6,12.45 3.36,14.99 -1.58,-1.33 -3.34,-3.96 -4.95,-5.73 -2.85,-3.12 -16.56,-13.69 -19.23,-13.14 -2.16,1.41 -3.75,4.2 -7.84,2.67 -3.65,-1.37 -2.26,-4.1 -3.88,-6.93 -3.06,-2.08 -14.42,-2.57 -18.4,-1.62l-0.24 2.18c2.41,1.8 11.64,1.11 15.63,2.1 1.34,3.56 1.87,5.95 5.72,7.51 4.59,1.86 7.15,0.08 10.04,-1.77 5.63,1.75 17.78,12.85 20.07,16.93 -0.63,1.89 -7.8,14.03 -8.96,15.22 -3.5,-0.97 -5.21,-1.27 -8.43,0.31 -4.57,2.22 -3.74,-0.13 -8.01,-0.91 -7.62,-1.4 -20.28,8.18 -2.94,22.47 10.86,8.94 9.46,2.35 14.31,2.06 0.23,4.19 0.29,6.03 -0.72,9.44 -3.73,1.14 -5.42,-0.43 -6.02,1.17l-0.41 1.21c-0.62,3.34 1.05,5.54 -0.72,11.55 -2.49,0.82 -2.54,0.95 -4.92,-0.13 -2.81,-9.78 3.27,-11.69 2.43,-15.88 -2.33,-0.81 -2.79,0.1 -3.82,1.94l-13.34 22.68c-2.4,4.11 -3.33,7.86 -6.09,8.7 -1.34,-2.26 -5.92,-9.58 -6.57,-12.24 14.29,-7.13 18.7,-20.49 8.52,-24.98 -5.51,-2.42 -7.67,0.03 -11.43,1.63 -4.74,-2.58 -9.12,-4.04 -13.73,0.17 -4.62,4.22 -2.98,7.98 -1.2,13.25 -10.36,4.98 -2.17,-12.01 -7.31,-13.23 -1.69,-0.39 -2.12,0.64 -3.56,0.01 -2.86,-1.81 -1.97,-5.71 -1.95,-9.45 0.03,-3.76 -0.11,-7.54 0.07,-11.3 3.37,2.75 9.22,19.16 12.29,16.02 0.06,-0.11 0.11,-0.29 0.13,-0.37l0.16 -1.14c-0.15,-2.24 -19.17,-31.91 -21.49,-37.69 1.58,-2.41 3.12,-4.53 5.1,-6.27 2.04,-1.8 4.15,-3.59 6.28,-4.97 1.73,1.19 3.15,3.47 4.71,4.99 8.66,8.43 10.96,9.06 17.35,4.12 2.98,-2.3 7.62,-6.46 9.37,-9.64 2.99,-5.4 0.26,-11.08 -3.99,-13.04 -1.89,-1.73 -6.68,-1.46 -9.2,-0.17 -1.95,1 -1.71,1.99 -3.6,1.13 -2.35,-1.08 -6.75,-4.75 -12.62,0.15 -2.73,2.28 -2.51,4.83 -3.26,8.57 -1.86,1.93 -4.94,4.1 -7.13,6.25 -1.94,1.9 -4.41,5.49 -6.57,6.67 -3.79,-2.96 -2.16,-8.27 0.38,-11.3 15.79,-18.84 44.83,-27.07 68.98,-19.82 3.71,1.12 7.54,3.62 11.44,2.8 0.73,-1 0.13,0.1 0.52,-1.37 -1.65,-2.47 -5.25,-3.3 -8.17,-4.19 -18.83,-5.73 -35.59,-4.61 -53.37,3.37 -3.82,1.72 -12.53,7.74 -15.5,10.23 -1.93,1.63 -4.43,4.26 -6.2,6.15 -1.99,2.11 -3.84,5.06 -3.77,9.14 0.06,3.95 1.84,6.92 4.44,8.47 3.75,2.25 2.48,2.45 5.47,7.39 6.13,10.11 4.54,6.03 4.54,20.67 0,8.84 -1.68,18.53 7.21,18.53 0,4.82 -0.42,8.69 1.73,11.65 0.91,1.25 2.59,2.12 4.47,2.27 2.78,0.22 4,-0.71 5.63,-1.57 1.91,1.28 1.83,2.11 5.66,4.63 1.49,0.98 4.92,3.01 6.04,4.25 3.57,3.94 8.58,20.45 14.78,11.94l11.6 -20.31c0.36,0.27 3.82,8.67 10.58,4.92 4.9,-2.71 3.39,-9.81 3.31,-13.15 8.35,0 7.25,-6.58 7.2,-11.84 -0.02,-2.78 -0.48,-4.13 0.88,-5.81 2.66,-3.3 7.26,-7.04 6.24,-13.1 -1.3,-7.69 -5.79,1.41 5.57,-18.31 2.57,-4.45 3.08,-1.3 5.57,-5.25 1.3,-2.07 2.39,-5.32 1.63,-8.79 -1.29,-5.85 -12.8,-15.36 -18.54,-18.56 -2.12,-1.19 -2.35,-0.69 -3.91,0.36z"/>
    <path class="fil2" d="M50.95 21.05c0.3,-0.14 0.18,-0.26 1.37,-0.43 1.25,-0.18 0.9,-0.12 2.06,-0.04l0.24 -2.18c3.98,-0.95 15.34,-0.46 18.4,1.62 1.62,2.83 0.23,5.56 3.88,6.93 4.09,1.53 5.68,-1.26 7.84,-2.67 2.67,-0.55 16.38,10.02 19.23,13.14 1.61,1.77 3.37,4.4 4.95,5.73 5.24,-2.54 2.91,-9.75 -3.36,-14.99 -2.32,-1.95 -4,-3.37 -6.58,-5.29 -2.53,-1.88 -5.57,-2.78 -6,-5.82 -1.55,-0.36 -2.38,-0.82 -3.61,-1.72 -3.9,0.82 -7.73,-1.68 -11.44,-2.8 -24.15,-7.25 -53.19,0.98 -68.98,19.82 -2.54,3.03 -4.17,8.34 -0.38,11.3 2.16,-1.18 4.63,-4.77 6.57,-6.67 2.19,-2.15 5.27,-4.32 7.13,-6.25 0.75,-3.74 0.53,-6.29 3.26,-8.57 5.87,-4.9 10.27,-1.23 12.62,-0.15 1.89,0.86 1.65,-0.13 3.6,-1.13 2.52,-1.29 7.31,-1.56 9.2,0.17z"/>
    <path class="fil3" d="M52.33 29.4c0,-3.65 -2.34,-6.13 -6.19,-6.16 -4.1,-0.02 -4.94,4.41 -8.63,2.5 -2.42,-1.25 -4.68,-4.39 -8.9,-1.53 -8.06,5.46 3.21,14.46 8.01,17.82 3.3,2.31 4.72,0.99 11.02,-4.96 1.89,-1.79 4.69,-4.31 4.69,-7.67z"/>
    <path class="fil3" d="M76.53 63.77c-2.77,1.06 -5.39,3.91 -3.86,8.04 0.74,2.01 4.32,5.38 5.74,6.65 7.8,6.97 7.52,5.92 14.75,-0.48 1.86,-1.64 4.68,-4.08 5.49,-6.94 0.97,-3.41 -1.36,-6.45 -4,-7.32 -5.06,-1.67 -6.2,2.43 -8.93,2.61 -3.39,0.22 -4.08,-4.52 -9.19,-2.56z"/>
    <path class="fil3" d="M39.54 91.08c-8.73,3.79 -1.67,11.51 1.87,14.59 0.87,0.75 5.9,4.86 7.29,4.86 2.37,0 5.92,-3.96 7.4,-5.31 1.56,-1.42 4.88,-4.29 5.67,-6.71 1.12,-3.4 -1.3,-6.82 -4.05,-7.63 -5.18,-1.53 -6.15,2.61 -9.01,2.67 -3.14,0.07 -4.21,-4.62 -9.17,-2.47z"/>
    <path class="fil1" d="M61.38 42.74c6.84,-1.53 8.58,8.33 2.39,9.96 -6.74,1.78 -10.45,-8.16 -2.39,-9.96zm-2.31 -3.16c-10.46,3.51 -5.56,20.35 6.34,16.31 10.35,-3.52 5.83,-20.39 -6.34,-16.31z"/>
    <path class="fil1" d="M40.1 61.46c-4.34,2.08 -6.4,-2.79 -3.37,-4.48 3.06,-1.71 5.13,0.94 4.52,3.04 -0.6,2.02 -0.08,0.7 -1.15,1.44zm-8.26 -1.19c1.06,7.57 13.68,7.53 12.95,-1.54 -0.73,-9.05 -14.15,-7.06 -12.95,1.54z"/>
    <path class="fil1" d="M82.07 43.17c3.73,-2.48 6.42,2.87 3.43,4.55 -3.94,2.19 -6.25,-2.67 -3.43,-4.55zm-0.86 -3.56c-3.01,1.25 -5.06,3.71 -3.48,8.09 1.13,3.17 4.45,5.29 8.84,3.59 7.04,-2.74 3.57,-15.38 -5.36,-11.68z"/>
    <path class="fil1" d="M55.11 75.4c-6.62,2.45 -7.94,-5.92 -0.77,-4.76 1.41,1.76 1.51,2.41 0.77,4.76zm3.88 -0.21c1.18,-3.86 -1.43,-7.28 -4.27,-8.11 -3.8,-1.12 -7.62,1.33 -8.37,4.21 -2.27,8.67 10.28,11.64 12.64,3.9z"/>
    <path class="fil4" d="M61.38 42.74c-8.06,1.8 -4.35,11.74 2.39,9.96 6.19,-1.63 4.45,-11.49 -2.39,-9.96z"/>
    <path class="fil4" d="M82.07 43.17c-2.82,1.88 -0.51,6.74 3.43,4.55 2.99,-1.68 0.3,-7.03 -3.43,-4.55z"/>
    <path class="fil4" d="M40.1 61.46c1.07,-0.74 0.55,0.58 1.15,-1.44 0.61,-2.1 -1.46,-4.75 -4.52,-3.04 -3.03,1.69 -0.97,6.56 3.37,4.48z"/>
    <path class="fil4" d="M55.11 75.4c0.74,-2.35 0.64,-3 -0.77,-4.76 -7.17,-1.16 -5.85,7.21 0.77,4.76z"/>
   </g>
   <path class="fil5" d="M103.99 125.28l0 -8.1 3.44 0c0.87,0 1.5,0.07 1.89,0.22 0.39,0.14 0.71,0.4 0.94,0.77 0.24,0.38 0.36,0.8 0.36,1.28 0,0.61 -0.18,1.11 -0.54,1.51 -0.35,0.39 -0.88,0.64 -1.59,0.75 0.35,0.2 0.64,0.43 0.87,0.67 0.23,0.25 0.54,0.69 0.93,1.32l0.98 1.58 -1.95 0 -1.18 -1.77c-0.42,-0.63 -0.7,-1.02 -0.86,-1.19 -0.16,-0.16 -0.32,-0.27 -0.49,-0.33 -0.18,-0.06 -0.45,-0.09 -0.83,-0.09l-0.33 0 0 3.38 -1.64 0zm1.64 -4.67l1.21 0c0.78,0 1.27,-0.04 1.47,-0.1 0.19,-0.07 0.35,-0.18 0.46,-0.35 0.11,-0.16 0.16,-0.36 0.16,-0.6 0,-0.28 -0.07,-0.5 -0.22,-0.67 -0.14,-0.16 -0.35,-0.27 -0.61,-0.31 -0.14,-0.02 -0.53,-0.03 -1.2,-0.03l-1.27 0 0 2.06zm2 -6.34c3.84,0 6.96,3.12 6.96,6.96 0,3.84 -3.12,6.96 -6.96,6.96 -3.84,0 -6.96,-3.12 -6.96,-6.96 0,-3.84 3.12,-6.96 6.96,-6.96zm0 -1.09c4.45,0 8.05,3.6 8.05,8.05 0,4.45 -3.6,8.06 -8.05,8.06 -4.45,0 -8.06,-3.61 -8.06,-8.06 0,-4.45 3.61,-8.05 8.06,-8.05z"/>
  </g>
 </g>
</svg>
